# xmcd
# Copyright (C) 1995-1998 Ti Kan
#
# Track frame offsets:
#       150
#       70350
#       139983
#       206273
#
# Disc length: 3808 seconds
#
# Revision: 0
# Processed by: cddbd v1.5.2PL0 Copyright (c) Steve Scherf et al.
# Submitted via: CD-Transfer v1.0
#
DISCID=390ede04
DTITLE=Friday Night Live Mixed By N.d. Wave - 
DYEAR=1900
DGENRE=
TTITLE0=R'n'b
TTITLE1=Classic House
TTITLE2=90's Pop
TTITLE3=House Modern
EXTD=
EXTT0=
EXTT1=
EXTT2=
EXTT3=
PLAYORDER=
